<?xml version="1.0" encoding="utf-8"?>
<!-- Generator: Adobe Illustrator 16.0.0, SVG Export Plug-In . SVG Version: 6.00 Build 0)  -->
<!DOCTYPE svg PUBLIC "-//W3C//DTD SVG 1.1//EN" "http://www.w3.org/Graphics/SVG/1.1/DTD/svg11.dtd">
<svg version="1.1" id="Capa_1" xmlns="http://www.w3.org/2000/svg" xmlns:xlink="http://www.w3.org/1999/xlink" x="0px" y="0px"
	 width="130.977px" height="133.998px" viewBox="0 0 130.977 133.998" enable-background="new 0 0 130.977 133.998"
	 xml:space="preserve">
<g>
	<path opacity="0.9" fill="#22FCA8" d="M85.398,34.572c-6.533,7.487-13.265,14.917-20.561,21.849
		c-5.964,5.664-11.916,11.342-18.026,16.886c-4.38,3.977-8.846,8.325-14.108,11.439c-1.572,0.932-0.631,3.372,1.353,2.799
		c1.126-0.326,1.477-0.332,2.642-0.535c0.221-0.039,1.12-0.214,1.341-0.244c0.689-0.093-0.233-0.15,0.504-0.232
		c0.709-0.075,1.425-0.139,2.133-0.209c9.037-0.884,18.021-2.189,26.981-3.51c6.077-0.897,12.142-1.834,18.208-2.785
		c2.225-0.35,1.277-3.302-0.934-2.953c-13.283,2.087-26.988,4.258-40.172,5.755c-3.056,0.347-6.287,0.411-9.272,1.117
		c-0.797,0.188-1.581,0.417-2.366,0.644c0.451,0.934,0.904,1.866,1.354,2.799c5.215-3.088,9.65-7.269,14.017-11.194
		c6.405-5.762,12.593-11.708,18.826-17.611c7.512-7.112,14.397-14.775,21.111-22.467C89.8,34.545,86.75,33.023,85.398,34.572
		L85.398,34.572z"/>
	<path fill="#22FCA8" d="M67.763,70.396c3.543-0.434,7.021-1.436,10.26-2.743c0.539-0.218,1.057-0.466,1.577-0.715
		c0.198-0.098,0.104-0.01-0.122-0.004c-0.546,0.009-0.949-0.28-1.139-0.696c0.168,0.365,0.033-0.057,0.051,0.228
		c0.061,0.963-0.225,1.956-0.449,2.889c-1.627,6.721-4.46,13.291-4.873,20.201c-0.118,1.976,3.392,1.963,3.51,0
		c0.44-7.335,3.995-14.164,5.16-21.379c0.29-1.796-0.016-5.176-3.202-4.165c-1.194,0.381-2.282,1.024-3.462,1.453
		c-1.307,0.475-2.664,0.846-4.025,1.179c-1.379,0.339-2.797,0.625-4.219,0.8C64.597,67.719,65.551,70.67,67.763,70.396
		L67.763,70.396z"/>
	<path fill="#22FCA8" d="M83.383,49.726c-0.124,0-0.253-0.015-0.38-0.042c-0.846-0.183-1.363-0.929-1.152-1.668l3.803-13.433
		c0.211-0.74,1.064-1.192,1.912-1.009c0.848,0.182,1.362,0.93,1.154,1.669l-3.806,13.434C84.74,49.305,84.093,49.726,83.383,49.726z
		"/>
</g>
<g>
	<circle fill="none" stroke="#22FCA8" stroke-miterlimit="10" stroke-dasharray="5.0424,5.0424" cx="65.833" cy="67.164" r="61"/>
</g>
</svg>
